PathFileType	4	(X/Y/Z)	/Users/visionmauri/Downloads/Videos/OAW10-top_Sports2D/OAW10-top_Sports2D_m_person00.trc
DataRate	CameraRate	NumFrames	NumMarkers	Units	OrigDataRate	OrigDataStartFrame	OrigNumFrames
25.0	25.0	6	22	m	25.0	1534	1754
Frame#	Time	Hip			RHip			RKnee			RAnkle			RBigToe			RSmallToe			RHeel			LHip			LKnee			LAnkle			LBigToe			LSmallToe			LHeel			Neck			Head			Nose			RShoulder			RElbow			RWrist			LShoulder			LElbow			LWrist			
		X1	Y1	Z1	X2	Y2	Z2	X3	Y3	Z3	X4	Y4	Z4	X5	Y5	Z5	X6	Y6	Z6	X7	Y7	Z7	X8	Y8	Z8	X9	Y9	Z9	X10	Y10	Z10	X11	Y11	Z11	X12	Y12	Z12	X13	Y13	Z13	X14	Y14	Z14	X15	Y15	Z15	X16	Y16	Z16	X17	Y17	Z17	X18	Y18	Z18	X19	Y19	Z19	X20	Y20	Z20	X21	Y21	Z21	X22	Y22	Z22
1534	61.39500285225328	2.264291121556294	-0.10487275096765526	0.0301	2.3321288912804468	-0.2316929224413924	0.0301	1.9316465157332379	-0.5396251793225899	0.129	1.5090404230209657	-0.9143237047659886	0.023	1.476413529915664	-0.9192067546650965	0.2179	1.5172574885615508	-1.0318094562087132	0.1804	1.411484440395187	-0.9904802533371075	-0.0119	2.1571244081181273	-0.034024371389529136	0.0301	1.8767060851813517	-0.33732628074216336	0.129	1.5562888392747074	-0.6124769728404237	0.023	1.5977326067185909	-0.6078392670950178	0.2179	1.542508439287712	-0.561246866361455	0.1804	1.4843313492788133	-0.6799397379061135	-0.0119	2.895210523986458	0.4123650735030047	0.0008	3.152684632385135	0.6353347736256583	0.0655	2.979302300572232	0.49067692096761073	0.1076	3.003514337452548	0.12900623734392516	-0.01275	2.7612412527155556	-0.20734488320192315	0.0702	2.5315831232903645	-0.4057613239263663	0.1076	2.6531408722604413	0.5581766443296773	-0.01275	2.2678248678330455	0.35826337680383885	0.0702	1.9731001735438376	0.15355788568300982	0.1076
1535	61.435025670279515	2.2711353218755126	-0.09246752376325776	0.0301	2.3396704097127916	-0.21556155999045826	0.0301	1.9426948958198549	-0.5264746679088262	0.129	1.5175873351426619	-0.9063245691667405	0.023	1.4788324814677523	-0.9203663011321565	0.2179	1.5147074240165688	-1.0332937293261804	0.1804	1.415709204496769	-0.9836207785705412	-0.0119	2.168815379781478	-0.016542305802339483	0.0301	1.8994555208410129	-0.3217167855902737	0.129	1.615502353785593	-0.5790384691753513	0.023	1.6557644722048175	-0.5642864189645623	0.2179	1.5987897621910874	-0.5211294602958958	0.1804	1.543449902824868	-0.6466255935651438	-0.0119	2.892236586899665	0.4187792164159208	0.0008	3.1434030036710925	0.6471806768120644	0.0655	2.971715778213064	0.501290056912952	0.1076	2.9995683513808857	0.14449576243591333	-0.01275	2.76524901191419	-0.18983537682782048	0.0702	2.5547992401247432	-0.37968497901060555	0.1076	2.652210571745256	0.5612345556012822	-0.01275	2.273856469499505	0.35892084654959805	0.0702	1.9796569138371325	0.14967950515590814	0.1076
1536	61.47504848830576	2.2810761215236073	-0.08105706698551426	0.0301	2.350180436567677	-0.1985631132389415	0.0301	1.9505138209622896	-0.516020026367929	0.129	1.5243274753418659	-0.9006497981954328	0.023	1.4766311408690815	-0.9269178880471719	0.2179	1.508222394766932	-1.0379120932948187	0.1804	1.422678333215574	-0.9765054287930961	-0.0119	2.1810295732335594	-0.0009411561620651561	0.0301	1.9178897284570764	-0.3107942088400357	0.129	1.6493136720124604	-0.5709560587939	0.023	1.6817825804137552	-0.5558635747478077	0.2179	1.6232735054741103	-0.5129296483402743	0.1804	1.5771496703169365	-0.6379673345715077	-0.0119	2.8885345229464408	0.42760937367602886	0.0008	3.130983953481459	0.6528430689507686	0.0655	2.96525181561252	0.5070201759951597	0.1076	2.9964433105948376	0.16266768859001485	-0.01275	2.7724067992364363	-0.16688063395800215	0.0702	2.572749590005664	-0.35478091465667827	0.1076	2.6545932425116177	0.5675211903493583	-0.01275	2.28104530535291	0.35830579029401244	0.0702	1.9865368432710493	0.1456194490267496	0.1076
1537	61.515071306332	2.292573108065252	-0.0683143591765442	0.0301	2.3607865761742097	-0.18236224031159068	0.0301	1.9625495365810623	-0.5003445497073143	0.129	1.5383108014688895	-0.8880381879053358	0.023	1.4769632994981963	-0.9242471759705946	0.2179	1.5100952901956557	-1.0357240403688641	0.1804	1.4453628504560978	-0.9589977923784362	-0.0119	2.1923924036751807	0.008786776409201153	0.0301	1.932325673132429	-0.3016671722914639	0.129	1.6598405303164643	-0.5776690920708094	0.023	1.690903757000617	-0.5645479618137604	0.2179	1.6367858096130954	-0.5216646916300168	0.1804	1.588456169093262	-0.6408135917017026	-0.0119	2.8861875056608723	0.4410136849579427	0.0008	3.1247666659055793	0.6562665082375028	0.0655	2.957848656339467	0.5081732397016945	0.1076	2.9932872334805705	0.18080222658810619	-0.01275	2.781880058204309	-0.14273871251964576	0.0702	2.584025913026256	-0.3315820466607057	0.1076	2.655962822896268	0.5752530169098509	-0.01275	2.2891338169508018	0.35830489047749636	0.0702	1.9948910172715892	0.14590125394962117	0.1076
1538	61.555094124358234	2.3030519019990123	-0.05125619871893251	0.0301	2.3698905501602834	-0.16337714352330152	0.0301	1.981965531749674	-0.476738473301272	0.129	1.5690743859508935	-0.861980878547129	0.023	1.49662205645648	-0.90516683599613	0.2179	1.533255170848911	-1.0154162580107382	0.1804	1.4821254628945577	-0.929588719999731	-0.0119	2.203179391918686	0.019889143499570522	0.0301	1.9466379723406613	-0.29083417711529774	0.129	1.6612221442379944	-0.581172191405632	0.023	1.6962091755716824	-0.5734555953098713	0.2179	1.6411973608825854	-0.5341108044381049	0.1804	1.5892593157077024	-0.6430590628029885	-0.0119	2.883184020163476	0.4542893044341578	0.0008	3.124726885799361	0.6620934544463134	0.0655	2.9593096034301127	0.5171327959655115	0.1076	2.992529057847062	0.19775073942229343	-0.01275	2.788913795595056	-0.12021090842025206	0.0702	2.5889690519750634	-0.31232088094113086	0.1076	2.6561293570811095	0.5860298044138523	-0.01275	2.2992572372019664	0.36560761537787223	0.0702	2.0047329157197424	0.15234114689416478	0.1076
1539	61.59511694238448	2.3123602962618315	-0.029444811909082613	0.0301	2.3795679530677196	-0.13829472627506145	0.0301	2.0080578312082134	-0.4513975225890227	0.129	1.618202459933242	-0.8233049307520834	0.023	1.5459075244302476	-0.8752021876713765	0.2179	1.5789774014031395	-0.9748245958259242	0.1804	1.5265899624688635	-0.8927353406130063	-0.0119	2.214944176307918	0.040264093840702196	0.0301	1.9608684300083483	-0.27896007552682944	0.129	1.6629633820525171	-0.575731202348019	0.023	1.694758048758719	-0.584931302640545	0.2179	1.6322375964502605	-0.5470016201997345	0.1804	1.5890732933430143	-0.6442157290759373	-0.0119	2.8830834480093697	0.4672343271741519	0.0008	3.127529127280545	0.6754805894101101	0.0655	2.9776481353776494	0.5391917437262498	0.1076	2.9970759330766175	0.21564397165259563	-0.01275	2.791180703329602	-0.0985790945253517	0.0702	2.5895023439186184	-0.29805409326558074	0.1076	2.6613491684241835	0.602296495030712	-0.01275	2.3105538541052892	0.38159788119808913	0.0702	2.015918554476224	0.16474882465781365	0.1076
